<mxfile host="app.diagrams.net" modified="2021-12-28T07:19:28.227Z" agent="5.0 (Macintosh; Intel Mac OS X 10_16_0) AppleWebKit/537.36 (KHTML, like Gecko) Chrome/80.0.3987.163 Safari/537.36" etag="6bpsyn_smdRZDmEIXOiT" version="16.1.0" type="github">
  <diagram id="mr1jo2ph0nZ94ddj5H8C" name="第 1 页">
    <mxGraphModel dx="946" dy="528" grid="1" gridSize="10" guides="1" tooltips="1" connect="1" arrows="1" fold="1" page="1" pageScale="1" pageWidth="827" pageHeight="1169" math="0" shadow="0">
      <root>
        <mxCell id="0" />
        <mxCell id="1" parent="0" />
        <mxCell id="_gwGioCeEYafsDK6wfVg-1" value="水电费水电费的" style="whiteSpace=wrap;html=1;aspect=fixed;" vertex="1" parent="1">
          <mxGeometry x="570" y="100" width="80" height="80" as="geometry" />
        </mxCell>
        <mxCell id="_gwGioCeEYafsDK6wfVg-3" style="edgeStyle=orthogonalEdgeStyle;rounded=0;orthogonalLoop=1;jettySize=auto;html=1;exitX=1;exitY=0.5;exitDx=0;exitDy=0;entryX=0;entryY=0.5;entryDx=0;entryDy=0;curved=1;" edge="1" parent="1" source="_gwGioCeEYafsDK6wfVg-2" target="_gwGioCeEYafsDK6wfVg-1">
          <mxGeometry relative="1" as="geometry" />
        </mxCell>
        <mxCell id="_gwGioCeEYafsDK6wfVg-4" value="Text" style="edgeLabel;html=1;align=center;verticalAlign=middle;resizable=0;points=[];" vertex="1" connectable="0" parent="_gwGioCeEYafsDK6wfVg-3">
          <mxGeometry x="0.1615" y="-3" relative="1" as="geometry">
            <mxPoint as="offset" />
          </mxGeometry>
        </mxCell>
        <mxCell id="_gwGioCeEYafsDK6wfVg-2" value="dsf s d f d s f" style="whiteSpace=wrap;html=1;aspect=fixed;" vertex="1" parent="1">
          <mxGeometry x="140" y="100" width="80" height="80" as="geometry" />
        </mxCell>
      </root>
    </mxGraphModel>
  </diagram>
</mxfile>
